<svg xmlns="http://www.w3.org/2000/svg" width="420" height="280" viewBox="0 0 420 280" fill="none">
  <rect width="420" height="280" rx="24" fill="#F1F5F9"/>
  <rect x="36" y="40" width="348" height="200" rx="18" fill="#FFFFFF" stroke="#CBD5F5" stroke-width="2"/>
  <rect x="64" y="72" width="140" height="24" rx="12" fill="#38BDF8" fill-opacity="0.3"/>
  <rect x="64" y="110" width="96" height="16" rx="8" fill="#0EA5E9" fill-opacity="0.3"/>
  <rect x="64" y="138" width="72" height="16" rx="8" fill="#0EA5E9" fill-opacity="0.3"/>
  <path d="M220 96c48 0 62 48 108 48 25.5 0 36-24 36-24" stroke="#2563EB" stroke-width="8" stroke-linecap="round" stroke-linejoin="round"/>
  <path d="M220 168c24 0 36 24 60 24s48-24 84-24" stroke="#1E3A8A" stroke-width="8" stroke-linecap="round" stroke-linejoin="round" opacity="0.6"/>
  <circle cx="220" cy="96" r="10" fill="#2563EB"/>
  <circle cx="328" cy="144" r="10" fill="#2563EB"/>
  <circle cx="368" cy="120" r="6" fill="#2563EB"/>
  <rect x="64" y="184" width="84" height="32" rx="16" fill="#2563EB" fill-opacity="0.15"/>
  <rect x="160" y="184" width="84" height="32" rx="16" fill="#2563EB" fill-opacity="0.2"/>
  <rect x="256" y="184" width="84" height="32" rx="16" fill="#2563EB" fill-opacity="0.4"/>
</svg>
