<svg xmlns="http://www.w3.org/2000/svg" width="420" height="280" viewBox="0 0 420 280" fill="none">
  <rect width="420" height="280" rx="24" fill="#FDF7FF"/>
  <rect x="36" y="52" width="348" height="176" rx="20" fill="#FFFFFF" stroke="#E9D5FF" stroke-width="2"/>
  <rect x="60" y="76" width="80" height="16" rx="8" fill="#C084FC" fill-opacity="0.5"/>
  <rect x="60" y="108" width="120" height="18" rx="9" fill="#A855F7" fill-opacity="0.2"/>
  <rect x="60" y="138" width="160" height="18" rx="9" fill="#A855F7" fill-opacity="0.2"/>
  <rect x="60" y="168" width="200" height="18" rx="9" fill="#A855F7" fill-opacity="0.2"/>
  <rect x="60" y="198" width="112" height="32" rx="16" fill="#8B5CF6" fill-opacity="0.35"/>
  <g opacity="0.9">
    <rect x="220" y="92" width="144" height="104" rx="18" fill="#F8F0FF"/>
    <rect x="244" y="116" width="96" height="12" rx="6" fill="#8B5CF6" fill-opacity="0.45"/>
    <rect x="244" y="144" width="84" height="12" rx="6" fill="#8B5CF6" fill-opacity="0.8"/>
    <rect x="244" y="172" width="72" height="12" rx="6" fill="#8B5CF6" fill-opacity="0.45"/>
    <circle cx="328" cy="144" r="12" fill="#8B5CF6" fill-opacity="0.9"/>
  </g>
  <circle cx="96" cy="224" r="12" fill="#A855F7" fill-opacity="0.4"/>
  <circle cx="132" cy="228" r="8" fill="#A855F7" fill-opacity="0.4"/>
</svg>
